<svg width="512" height="512" fill="none" xmlns="http://www.w3.org/2000/svg">
  <path fill="#1E1E1E" d="M0 0h512v512H0z" />
  <g clip-path="url(#prefix__clip0_0_1)">
    <path fill-rule="evenodd" clip-rule="evenodd"
      d="M160 0H96C42.98 0 0 42.98 0 96v320c0 53.02 42.98 96 96 96h320c53.02 0 96-42.98 96-96V96c0-53.02-42.98-96-96-96H160zm-4 8H96c-21.21 0-40.666 7.503-55.86 20H156V8zM35.205 32.376L35.6 32H156v19.1a227.422 227.422 0 00-16.182 8.722A227.989 227.989 0 0096.2 93.372L35.205 32.376zM32 35.601l.376-.396L93.372 96.2A227.978 227.978 0 0051.1 156H32V35.601zm-4 4.538C15.503 55.334 8 74.791 8 96v60h20V40.14zM8 160v94h20v-94H8zm0 98v94h20v-94H8zm0 98v60c0 21.21 7.503 40.667 20 55.861V356H8zm24.376 120.795a50.804 50.804 0 01-.376-.396V356h19.1a227.586 227.586 0 0013.565 23.996 228.308 228.308 0 0022.397 29.118c2.058 2.271 4.161 4.5 6.31 6.686l-60.996 60.995zM35.601 480c-.133-.125-.265-.25-.396-.376L96.2 418.628a226.519 226.519 0 0013.621 12.345 228.93 228.93 0 0014.571 11.208 228.765 228.765 0 0015.426 9.997A227.147 227.147 0 00156 460.9V480H35.6zm4.538 4C55.333 496.497 74.79 504 96 504h60v-20H40.139zM160 504h94v-20h-94v20zm98 0h94v-20h-94v20zm98 0h60c21.21 0 40.667-7.503 55.862-20H356v20zm120.796-24.376l-.396.376H356v-19.1a227.147 227.147 0 0023.996-13.565 228.765 228.765 0 0015.011-10.611 228.93 228.93 0 0014.107-11.786c2.271-2.058 4.5-4.161 6.686-6.31l60.996 60.996zM480 476.4l-.376.396-60.996-60.996a227.063 227.063 0 0018.096-20.793 227.59 227.59 0 0015.454-22.825A227.147 227.147 0 00460.9 356H480v120.4zm4-4.538c12.497-15.195 20-34.652 20-55.862v-60h-20v115.862zM504 352v-94h-20v94h20zm0-98v-94h-20v94h20zm0-98V96c0-21.21-7.503-40.666-20-55.861V156h20zM479.624 35.205c.126.131.251.263.376.396V156h-19.1a227.147 227.147 0 00-13.565-23.996 228.765 228.765 0 00-10.611-15.011 228.93 228.93 0 00-11.786-14.107 226.519 226.519 0 00-6.31-6.686l60.996-60.995zM476.399 32c.133.125.265.25.396.376L415.8 93.372a227.729 227.729 0 00-20.793-18.096 228.325 228.325 0 00-30.828-19.978A227.586 227.586 0 00356 51.1V32h120.399zm-4.538-4H356V8h60c21.21 0 40.667 7.503 55.861 20zM352 8h-94v20h94V8zm-98 0v20h-94V8h94zm98 24v17.196a227.581 227.581 0 00-26.208-10.252A227.942 227.942 0 00298.521 32H352zm-192 0h53.479A228.074 228.074 0 00160 49.196V32zm94 .009a224.093 224.093 0 00-48.177 5.683 223.874 223.874 0 00-40.299 13.393 223.935 223.935 0 00-5.524 2.53V156h3.826c.761-.701 1.529-1.393 2.305-2.077a140.862 140.862 0 014.749-3.992 140.726 140.726 0 014.927-3.772c.835-.61 1.677-1.21 2.526-1.8a134.535 134.535 0 0110.496-6.613 137.677 137.677 0 015.463-2.941 137.99 137.99 0 015.592-2.688 132.83 132.83 0 015.709-2.43 134.978 134.978 0 018.755-3.152 135.105 135.105 0 018.951-2.545 136.367 136.367 0 0112.165-2.431 139.165 139.165 0 016.153-.796 139.017 139.017 0 016.183-.516 139.096 139.096 0 016.2-.232V32.009zm98 21.605a223.935 223.935 0 00-63.734-19.278A224.303 224.303 0 00258 32.009v88.006a133.554 133.554 0 016.2.232 139.387 139.387 0 016.183.516 132.008 132.008 0 016.153.796c1.022.157 2.042.325 3.061.504 1.019.179 2.035.37 3.049.573a136.367 136.367 0 0126.63 8.233 134.998 134.998 0 015.651 2.56 137.99 137.99 0 015.529 2.815 137.677 137.677 0 018.038 4.688 134.535 134.535 0 015.173 3.427 131.369 131.369 0 015.011 3.658 133.29 133.29 0 017.191 5.907c.776.683 1.544 1.375 2.305 2.076H352V53.614zM412.971 96.2a223.857 223.857 0 00-41.575-32.189A224.088 224.088 0 00356 55.561v97.611L412.971 96.2zM156 55.56a224.075 224.075 0 00-43.97 28.834A224.745 224.745 0 0099.029 96.2L156 153.172V55.56zM456.44 156a223.746 223.746 0 00-8.451-15.396 223.433 223.433 0 00-14.87-21.735 223.414 223.414 0 00-11.288-13.455 224.982 224.982 0 00-6.031-6.385L358.828 156h97.612zM96.2 99.029a224.408 224.408 0 00-17.319 19.84 224.44 224.44 0 00-10.199 14.297A224.109 224.109 0 0055.56 156h97.612L96.2 99.029zM169.837 156c.725-.625 1.457-1.241 2.196-1.85a129.394 129.394 0 016.82-5.259 135.703 135.703 0 017.149-4.803c.811-.507 1.628-1.006 2.45-1.496.823-.489 1.65-.97 2.483-1.442a127.982 127.982 0 015.056-2.721 130.766 130.766 0 015.17-2.499c.871-.397 1.746-.785 2.625-1.164a127.57 127.57 0 015.321-2.156 135.736 135.736 0 015.411-1.923 131.575 131.575 0 0111.046-3.13 133.353 133.353 0 018.44-1.712 135.96 135.96 0 015.682-.833 135.886 135.886 0 015.712-.586 130.714 130.714 0 015.732-.336c.956-.035 1.913-.06 2.87-.075V156h-84.163zM258 124.015a137.426 137.426 0 015.738.212 130.714 130.714 0 0111.421 1.171c.947.139 1.893.288 2.836.447a134.798 134.798 0 018.441 1.712 133.248 133.248 0 018.311 2.258 131.575 131.575 0 0121.262 8.614 133.494 133.494 0 017.539 4.163 135.707 135.707 0 014.868 3.045 135.703 135.703 0 014.731 3.254 128.382 128.382 0 014.585 3.456 137.523 137.523 0 014.431 3.653H258v-31.985zM32 213.479A228.074 228.074 0 0149.196 160H32v53.479zM32.009 254a223.686 223.686 0 011.533-24.243 223.9 223.9 0 018.951-41.512 222.895 222.895 0 016.214-17.13A223.039 223.039 0 0153.614 160H156v3.826a137.003 137.003 0 00-7.983 9.496 135.983 135.983 0 00-22.398 43.99 139.04 139.04 0 00-1.629 5.987 136.367 136.367 0 00-2.431 12.165 139.165 139.165 0 00-.796 6.153 139.017 139.017 0 00-.516 6.183 139.096 139.096 0 00-.232 6.2H32.009zm133.393-94c-.441.417-.88.836-1.315 1.258l22.631 22.631a99.913 99.913 0 0135.557-22.031A99.985 99.985 0 01228 160h-62.598zm182.511 1.258a142.25 142.25 0 00-1.315-1.258H284a99.985 99.985 0 0132.12 16.09 99.913 99.913 0 019.162 7.799l22.631-22.631zM479.991 254a223.686 223.686 0 00-.904-18.2 226.924 226.924 0 00-1.423-12.066A224.146 224.146 0 00458.386 160H356v3.826c.701.761 1.393 1.529 2.077 2.305a140.862 140.862 0 013.992 4.749 140.726 140.726 0 013.772 4.927c.61.835 1.21 1.677 1.8 2.526a134.535 134.535 0 016.613 10.496 137.677 137.677 0 012.941 5.463 137.99 137.99 0 013.936 8.432 135.027 135.027 0 012.299 5.763 137.06 137.06 0 012.951 8.825c.295.991.578 1.986.849 2.984a140.73 140.73 0 011.492 6.023c.225 1.009.439 2.021.642 3.035.203 1.014.394 2.03.573 3.049.179 1.019.347 2.039.504 3.061a139.165 139.165 0 01.796 6.153 139.017 139.017 0 01.516 6.183 139.096 139.096 0 01.232 6.2h88.006zm.009-94v53.479a227.308 227.308 0 00-6.945-27.271A228.043 228.043 0 00462.804 160H480zm-290.453 26.718a95.786 95.786 0 0113.953-11.09 95.303 95.303 0 017.688-4.527 95.548 95.548 0 0112.235-5.405 96.62 96.62 0 0112.869-3.651 95.868 95.868 0 0113.25-1.827 94.808 94.808 0 014.458-.197v91.151l-64.453-64.454zM258 160.021a95.8 95.8 0 0122.053 3.041 96.62 96.62 0 018.524 2.634 97.126 97.126 0 018.242 3.415 96.263 96.263 0 0115.359 9.043 95.456 95.456 0 0110.275 8.564L258 251.172v-91.151zm-96.742 4.066c-.422.435-.841.874-1.258 1.315V228a99.985 99.985 0 0116.09-32.12 99.913 99.913 0 017.799-9.162l-22.631-22.631zM352 165.402c-.417-.441-.836-.88-1.258-1.315l-22.631 22.631a99.913 99.913 0 0122.031 35.557A99.985 99.985 0 01352 228v-62.598zM124.015 254a137.247 137.247 0 01.212-5.738 130.714 130.714 0 011.171-11.421c.139-.947.288-1.893.447-2.837a135.89 135.89 0 011.08-5.639 133.353 133.353 0 012.077-8.358 131.634 131.634 0 014.657-13.572c.359-.887.728-1.77 1.107-2.649s.767-1.754 1.164-2.625a130.766 130.766 0 016.662-12.709 135.707 135.707 0 013.045-4.868 135.703 135.703 0 013.254-4.731 128.382 128.382 0 013.456-4.585c.593-.752 1.194-1.497 1.803-2.235.609-.739 1.225-1.471 1.85-2.196V254h-31.985zM356 169.837a137.523 137.523 0 013.653 4.431 134.53 134.53 0 013.456 4.585 135.703 135.703 0 014.803 7.149c.507.811 1.006 1.628 1.496 2.45.489.823.97 1.65 1.442 2.483a127.982 127.982 0 012.721 5.056 130.766 130.766 0 012.499 5.17c.397.871.785 1.746 1.164 2.625a127.57 127.57 0 012.156 5.321 135.736 135.736 0 011.923 5.411 131.575 131.575 0 013.13 11.046 133.353 133.353 0 011.712 8.44 135.96 135.96 0 01.833 5.682 135.225 135.225 0 01.585 5.712 130.721 130.721 0 01.412 8.602H356v-84.163zM251.172 254l-64.454-64.453a95.786 95.786 0 00-11.09 13.953 95.303 95.303 0 00-4.527 7.688 95.134 95.134 0 00-3.793 8.074 94.999 94.999 0 00-3.028 8.393 96.62 96.62 0 00-2.235 8.637 95.868 95.868 0 00-1.828 13.25 96.177 96.177 0 00-.196 4.458h91.151zm74.11-64.453a95.786 95.786 0 0111.09 13.953 95.303 95.303 0 014.527 7.688 95.134 95.134 0 013.793 8.074 94.999 94.999 0 013.028 8.393 96.62 96.62 0 012.235 8.637c.305 1.456.577 2.918.815 4.387a96.755 96.755 0 011.013 8.863c.1 1.485.165 2.971.196 4.458h-91.151l64.454-64.453zM32.009 258a223.686 223.686 0 001.533 24.243 224.304 224.304 0 005.591 29.836 224.48 224.48 0 007.348 23.153 222.739 222.739 0 004.604 11.244 223.935 223.935 0 002.53 5.524H156v-3.826a137.003 137.003 0 01-7.983-9.496 135.983 135.983 0 01-22.398-43.99 139.04 139.04 0 01-1.629-5.987 136.367 136.367 0 01-2.431-12.165 139.165 139.165 0 01-.796-6.153 139.017 139.017 0 01-.516-6.183 139.096 139.096 0 01-.232-6.2H32.009zM156 342.163a137.523 137.523 0 01-3.653-4.431 128.382 128.382 0 01-5.109-6.933 135.703 135.703 0 01-3.15-4.801 135.707 135.707 0 01-1.496-2.45c-.489-.823-.97-1.65-1.442-2.483a127.982 127.982 0 01-2.721-5.056 133.51 133.51 0 01-3.663-7.795 127.57 127.57 0 01-2.156-5.321 135.736 135.736 0 01-1.923-5.411 131.575 131.575 0 01-3.13-11.046 133.353 133.353 0 01-1.712-8.441 134.828 134.828 0 01-1.157-8.533 130.714 130.714 0 01-.598-8.592c-.035-.957-.06-1.913-.075-2.87H156v84.163zm30.718-19.71a95.456 95.456 0 01-11.09-13.953 95.303 95.303 0 01-4.527-7.688 95.134 95.134 0 01-3.793-8.074 94.999 94.999 0 01-3.028-8.393 96.62 96.62 0 01-2.235-8.636 96.376 96.376 0 01-1.828-13.251 96.177 96.177 0 01-.196-4.458h91.151l-64.454 64.453zM351.979 258a96.177 96.177 0 01-1.209 13.321 97.56 97.56 0 01-.815 4.388 94.991 94.991 0 01-2.235 8.636 94.999 94.999 0 01-3.028 8.393 95.134 95.134 0 01-3.793 8.074 96.263 96.263 0 01-7.053 11.366 95.456 95.456 0 01-8.564 10.275L260.828 258h91.151zm106.407 94a223.562 223.562 0 009.205-22.479 223.661 223.661 0 005.276-17.442 225.466 225.466 0 002.721-11.841 224.837 224.837 0 002.869-17.995 226.924 226.924 0 001.096-12.101 223.385 223.385 0 00.438-12.142h-88.006a133.554 133.554 0 01-.232 6.2 139.387 139.387 0 01-.516 6.183 132.008 132.008 0 01-.796 6.153 144.537 144.537 0 01-.504 3.061c-.179 1.019-.37 2.035-.573 3.049a136.367 136.367 0 01-8.233 26.63 134.998 134.998 0 01-2.56 5.651 137.99 137.99 0 01-2.815 5.529 137.677 137.677 0 01-4.688 8.038 134.535 134.535 0 01-3.427 5.173 131.369 131.369 0 01-3.658 5.011 133.29 133.29 0 01-5.906 7.191c-.684.776-1.376 1.544-2.077 2.305V352h102.386zm-70.401-94a137.426 137.426 0 01-.212 5.738 130.721 130.721 0 01-.461 5.724 135.886 135.886 0 01-.71 5.697c-.139.947-.288 1.893-.447 2.836a134.798 134.798 0 01-1.712 8.441 133.248 133.248 0 01-2.258 8.311 131.575 131.575 0 01-8.614 21.262 133.494 133.494 0 01-4.163 7.539 135.707 135.707 0 01-3.045 4.868 135.703 135.703 0 01-3.254 4.731 128.382 128.382 0 01-3.456 4.585 137.523 137.523 0 01-3.653 4.431V258h31.985zM254 351.979a96.177 96.177 0 01-13.321-1.209 97.56 97.56 0 01-4.388-.815 94.991 94.991 0 01-8.636-2.235 94.999 94.999 0 01-8.393-3.027 95.548 95.548 0 01-8.075-3.794 96.91 96.91 0 01-7.687-4.527 97.033 97.033 0 01-7.235-5.22 95.456 95.456 0 01-6.718-5.87L254 260.828v91.151zm68.453-26.697a95.456 95.456 0 01-13.953 11.09 95.303 95.303 0 01-7.688 4.527 95.134 95.134 0 01-8.074 3.794 97.11 97.11 0 01-8.393 3.027 96.62 96.62 0 01-8.636 2.235 97.78 97.78 0 01-4.387.815 96.798 96.798 0 01-8.864 1.013c-1.485.1-2.971.165-4.458.196v-91.151l64.453 64.454zM160 346.598c.417.441.836.88 1.258 1.315l22.631-22.631a99.913 99.913 0 01-22.031-35.557A99.73 99.73 0 01160 284v62.598zm190.742 1.315c.422-.435.841-.874 1.258-1.315V284a99.74 99.74 0 01-4.058 11.328 99.966 99.966 0 01-12.032 20.792 99.913 99.913 0 01-7.799 9.162l22.631 22.631zM480 352h-17.196A228.023 228.023 0 00480 298.521V352zm-448 0v-53.479A228.074 228.074 0 0049.196 352H32zm132.087-1.258c.435.422.874.841 1.315 1.258H228a99.74 99.74 0 01-11.328-4.058 99.966 99.966 0 01-20.792-12.032 99.913 99.913 0 01-9.162-7.799l-22.631 22.631zM346.598 352c.441-.417.88-.836 1.315-1.258l-22.631-22.631a99.913 99.913 0 01-35.557 22.03A99.74 99.74 0 01284 352h62.598zM55.56 356a224.421 224.421 0 0013.122 22.834 223.736 223.736 0 0021.487 27.752 223.853 223.853 0 006.031 6.385L153.172 356H55.56zM160 458.386a223.562 223.562 0 0022.479 9.205 223.661 223.661 0 0017.442 5.276 225.466 225.466 0 0011.841 2.721 224.837 224.837 0 0017.995 2.869 226.924 226.924 0 0012.101 1.096 223.385 223.385 0 0012.142.438v-88.006a133.554 133.554 0 01-6.2-.232 139.387 139.387 0 01-6.183-.516 132.008 132.008 0 01-6.153-.796 144.537 144.537 0 01-3.061-.504c-1.019-.179-2.035-.37-3.049-.573a136.367 136.367 0 01-26.63-8.233 134.998 134.998 0 01-5.651-2.56 137.99 137.99 0 01-5.529-2.815 137.677 137.677 0 01-8.038-4.688 134.535 134.535 0 01-5.173-3.427 131.369 131.369 0 01-5.011-3.658 133.29 133.29 0 01-7.191-5.906 141.554 141.554 0 01-2.305-2.077H160v102.386zm94-70.401a137.247 137.247 0 01-5.738-.212 130.721 130.721 0 01-5.724-.461 135.886 135.886 0 01-5.697-.71 135.96 135.96 0 01-2.837-.447 135.89 135.89 0 01-5.639-1.08 133.353 133.353 0 01-8.358-2.077 131.634 131.634 0 01-13.572-4.657 127.57 127.57 0 01-2.649-1.107 128.103 128.103 0 01-5.223-2.386 130.766 130.766 0 01-10.111-5.44 135.707 135.707 0 01-4.868-3.045 135.703 135.703 0 01-4.731-3.254 128.382 128.382 0 01-4.585-3.456 129.394 129.394 0 01-2.235-1.803 129.296 129.296 0 01-2.196-1.85H254v31.985zm4 92.006a223.686 223.686 0 0018.2-.904 226.924 226.924 0 0012.066-1.423A224.146 224.146 0 00352 458.386V356h-3.826c-.761.701-1.529 1.393-2.305 2.077a140.862 140.862 0 01-4.749 3.992 140.726 140.726 0 01-4.927 3.772c-.835.61-1.677 1.21-2.526 1.8a134.535 134.535 0 01-10.496 6.613 137.677 137.677 0 01-5.463 2.941 137.99 137.99 0 01-8.432 3.936 135.027 135.027 0 01-5.763 2.299 137.06 137.06 0 01-8.825 2.951c-.991.295-1.986.578-2.984.849a140.73 140.73 0 01-6.023 1.492c-1.009.225-2.021.439-3.035.642-1.014.203-2.03.394-3.049.573-1.019.179-2.039.347-3.061.504a139.165 139.165 0 01-6.153.796 139.017 139.017 0 01-6.183.516 139.096 139.096 0 01-6.2.232v88.006zM342.163 356a137.523 137.523 0 01-4.431 3.653 134.53 134.53 0 01-4.585 3.456 135.703 135.703 0 01-7.149 4.803c-.811.507-1.628 1.006-2.45 1.496-.823.489-1.65.97-2.483 1.442a127.982 127.982 0 01-5.056 2.721 133.51 133.51 0 01-7.795 3.663 127.57 127.57 0 01-5.321 2.156 135.736 135.736 0 01-5.411 1.923 131.575 131.575 0 01-11.046 3.13 133.353 133.353 0 01-8.441 1.712 134.828 134.828 0 01-8.533 1.157 137.41 137.41 0 01-5.724.461 130.42 130.42 0 01-5.738.212V356h84.163zm73.637 56.971a224.428 224.428 0 0011.807-13.002 224.639 224.639 0 0010.751-13.886 223.433 223.433 0 0014.007-22.302A223.746 223.746 0 00456.44 356h-97.612l56.972 56.971zM99.029 415.8a224.982 224.982 0 0013.002 11.807 224.639 224.639 0 0013.886 10.751 223.433 223.433 0 0022.302 14.007A223.746 223.746 0 00156 456.44v-97.612L99.029 415.8zM356 456.44a223.746 223.746 0 0015.396-8.451 223.433 223.433 0 0021.735-14.87 224.639 224.639 0 0013.455-11.288 224.428 224.428 0 006.385-6.031L356 358.828v97.612zM160 480v-17.196A228.023 228.023 0 00213.479 480H160zm192 0h-53.48a228.205 228.205 0 0040.534-11.665A228.023 228.023 0 00352 462.804V480z"
      fill="#000" fill-opacity=".1" />
    <mask id="prefix__a" style="mask-type:luminance" maskUnits="userSpaceOnUse" x="0" y="0" width="512" height="512">
      <path d="M512 0H0v512h512V0z" fill="#fff" />
    </mask>
    <g mask="url(#prefix__a)">
      <path d="M512 0H0v512h512V0z" fill="#fff" />
      <path d="M256 417c88.366 0 160-71.634 160-160S344.366 97 256 97 96 168.634 96 257s71.634 160 160 160z"
        fill="#fff" />
      <path
        d="M139.251 360.924c2.802 7.846 10.166 13.272 15.276 17.676 6.773 5.576 14.104 11.683 23.077 15.384 8.363 4.061 14.252 11.017 24.852 12.426 9.003 2.806 18.106 4.285 27.218 7.693 8.532 2.432 18.219 2.628 27.811 2.367 11.25-.604 21.233-3.529 31.953-5.918 9.684-.941 20.861-4.265 28.402-7.692 10.263-4.33 19.361-10.2 29.586-14.793 6.781-5.322 14.948-11.921 21.302-16.568 7.926-4.03 12.879-12.287 18.343-18.935 7.736-7.512 11.156-18.806 17.16-28.402 4.655-10.863 8.677-22.461 13.609-33.136 2.019-8.393 4.318-18.036 3.551-27.811-.162-2.995-.08-6.048.003-9.101.157-5.775.313-11.55-1.187-16.934-2.193-9.926-3.914-20.048-6.509-30.178-5.786-9.635-6.273-22.621-15.384-28.402-6.508-6.09-13.103-11.278-16.568-20.119-4.702-8.171-8.294-19.128-17.752-21.893-6.012-5.567-6.219 4.733-6.364 11.919-.031 1.566-.06 2.983-.145 4.057.769 7.512-.736 14.267-2.237 21.008-.46 2.065-.919 4.128-1.313 6.211-1.727 9.749-4.188 20.172-6.509 29.586-.852 10.526-5.803 19.691-10.651 27.219-4.282 8.416-10.073 16.446-15.384 24.852-4.817 8.624-12.83 14.482-18.344 21.893-6.111 8.34-11.042 15.533-18.343 21.894-8.989 6.803-17.572 13.64-27.811 18.343-7.623 7.493-19.808 12.093-30.769 15.976-1.66.892-3.32 1.841-5 2.802-8.221 4.701-16.95 9.693-28.728 9.625-7.321.907-14.429 2.523-21.519 4.135-10.378 2.36-20.717 4.71-31.626 4.816z"
        fill="#00B5FF" opacity=".3" />
      <path
        d="M237.811 159.329c1.163 5.084 1.391 10.455.686 16.114-.634 5.088-2 10.246-4.099 15.476-1.941 4.835-4.417 9.513-7.429 14.035-2.903 4.359-6.125 8.308-9.666 11.849-3.547 3.547-7.875 6.761-12.986 9.644-4.797 2.705-9.92 4.919-15.369 6.642-5.506 1.74-10.859 2.824-16.059 3.253-5.712.471-10.82.106-15.321-1.095l3.864-14.494c2.83.755 6.239.968 10.226.639 4.079-.335 8.335-1.204 12.769-2.606 4.457-1.409 8.631-3.21 12.522-5.405 3.919-2.21 7.169-4.605 9.748-7.184 2.839-2.839 5.434-6.025 7.787-9.558 2.439-3.662 4.437-7.432 5.993-11.308 1.617-4.027 2.662-7.941 3.135-11.742.487-3.912.346-7.551-.423-10.918l14.622-3.342zm107.046 186.42c-6.911 7.052-15.564 14.299-25.96 21.74a275.547 275.547 0 01-36.267 21.956c-14.535 7.337-28.77 12.889-42.705 16.655-16.075 4.344-31.182 6.14-45.323 5.389l.796-14.978c12.545.666 26.083-.965 40.614-4.892 12.949-3.499 26.235-8.687 39.858-15.564a260.595 260.595 0 0034.296-20.763c9.685-6.933 17.678-13.613 23.977-20.041l10.714 10.498zm19.963-215.326c4.263 15.856 4.699 33.023 1.307 51.5-2.861 15.582-8.378 31.782-16.553 48.601-6.741 13.867-14.982 27.575-24.724 41.123-7.941 11.043-15.924 20.729-23.949 29.057-3.596 3.732-7.891 7.698-12.885 11.898-5.205 4.377-10.838 8.73-16.901 13.057-13.818 9.863-27.992 18.329-42.521 25.398-17.155 8.346-33.315 13.963-48.481 16.85-18.081 3.442-34.076 2.845-47.985-1.792l4.744-14.23c11.436 3.812 24.915 4.241 40.436 1.286 13.858-2.637 28.766-7.838 44.723-15.603 13.777-6.703 27.233-14.742 40.37-24.118 5.739-4.097 11.059-8.206 15.96-12.327 4.593-3.863 8.505-7.472 11.738-10.827 7.527-7.811 15.052-16.947 22.573-27.407 9.242-12.851 17.046-25.825 23.411-38.922 7.579-15.593 12.676-30.511 15.291-44.753 2.984-16.255 2.637-31.221-1.04-44.895l14.486-3.896zm-2.271-3.671a167.99 167.99 0 0111.891 10.808 167.852 167.852 0 0120.449 24.784 166.686 166.686 0 0115.445 28.455 165.94 165.94 0 019.763 31.452A167.88 167.88 0 01423.5 256a167.88 167.88 0 01-3.403 33.749 165.94 165.94 0 01-9.763 31.452 166.686 166.686 0 01-15.445 28.455 167.903 167.903 0 01-20.449 24.784 167.903 167.903 0 01-24.784 20.449 166.686 166.686 0 01-28.455 15.445 165.868 165.868 0 01-31.452 9.763A167.88 167.88 0 01256 423.5a167.88 167.88 0 01-33.749-3.403 165.94 165.94 0 01-31.452-9.763 166.686 166.686 0 01-28.455-15.445 167.852 167.852 0 01-24.784-20.449 167.84 167.84 0 01-20.449-24.784 166.756 166.756 0 01-15.445-28.455 165.92 165.92 0 01-9.763-31.452A167.91 167.91 0 0188.5 256a167.91 167.91 0 013.403-33.749 165.927 165.927 0 019.763-31.452 166.756 166.756 0 0115.445-28.455 167.84 167.84 0 0120.449-24.784 167.84 167.84 0 0124.784-20.449 166.756 166.756 0 0128.455-15.445 165.92 165.92 0 0131.452-9.763A167.91 167.91 0 01256 88.5a167.91 167.91 0 0133.749 3.403 165.934 165.934 0 0131.452 9.763l-5.843 13.815a151.06 151.06 0 00-28.616-8.883A152.987 152.987 0 00256 103.5c-20.687 0-40.473 3.994-59.358 11.981a151.814 151.814 0 00-25.901 14.059 152.893 152.893 0 00-22.575 18.626 152.893 152.893 0 00-18.626 22.575 151.814 151.814 0 00-14.059 25.901C107.494 215.527 103.5 235.313 103.5 256c0 20.687 3.994 40.473 11.981 59.358a151.814 151.814 0 0014.059 25.901 152.893 152.893 0 0018.626 22.575 152.893 152.893 0 0022.575 18.626 151.814 151.814 0 0025.901 14.059C215.527 404.506 235.313 408.5 256 408.5c20.687 0 40.473-3.994 59.358-11.981a151.814 151.814 0 0025.901-14.059 152.893 152.893 0 0022.575-18.626 152.893 152.893 0 0018.626-22.575 151.814 151.814 0 0014.059-25.901C404.506 296.473 408.5 276.687 408.5 256c0-20.687-3.994-40.473-11.981-59.358a151.814 151.814 0 00-14.059-25.901 152.893 152.893 0 00-18.626-22.575 153.154 153.154 0 00-10.833-9.845l9.548-11.569zM238 161a7.531 7.531 0 01-.571 2.87 6.755 6.755 0 01-.315.666 7.26 7.26 0 01-.59.932 7.082 7.082 0 01-.721.835 7.07 7.07 0 01-.835.721 7.77 7.77 0 01-.612.409 7.747 7.747 0 01-.986.496 8.379 8.379 0 01-.343.133 7.16 7.16 0 01-1.064.294 7.236 7.236 0 01-1.095.135 7.531 7.531 0 01-2.895-.429 8.379 8.379 0 01-.68-.282 8.438 8.438 0 01-.649-.347 7.751 7.751 0 01-.902-.635 7.082 7.082 0 01-.545-.495 7.07 7.07 0 01-.721-.835 7.77 7.77 0 01-.59-.932 6.755 6.755 0 01-.315-.666 7.142 7.142 0 01-.346-1.048 7.175 7.175 0 01-.189-1.087 7.453 7.453 0 01.189-2.557 7.155 7.155 0 01.495-1.385 8.438 8.438 0 01.347-.649 7.751 7.751 0 01.635-.902 7.082 7.082 0 01.495-.545 7.07 7.07 0 01.835-.721 7.77 7.77 0 01.932-.59c.109-.058.218-.113.329-.166a8.41 8.41 0 01.68-.282 7.16 7.16 0 011.064-.294 7.4 7.4 0 011.831-.135 7.453 7.453 0 012.502.562 7.747 7.747 0 011.888 1.131 7.082 7.082 0 01.545.495 7.974 7.974 0 01.495.545 7.77 7.77 0 01.816 1.222 6.755 6.755 0 01.315.666 7.155 7.155 0 01.346 1.048 7.175 7.175 0 01.189 1.087A7.453 7.453 0 01238 161zm-71 67a7.531 7.531 0 01-.571 2.87 7.747 7.747 0 01-1.131 1.888 7.082 7.082 0 01-.495.545 7.107 7.107 0 01-.835.721 7.77 7.77 0 01-.612.409 7.747 7.747 0 01-.986.496 7.142 7.142 0 01-1.048.346 7.175 7.175 0 01-1.087.189 7.453 7.453 0 01-2.557-.189 8.448 8.448 0 01-.705-.213 7.142 7.142 0 01-.68-.282 7.747 7.747 0 01-1.551-.982 7.082 7.082 0 01-.545-.495 7.07 7.07 0 01-.721-.835 7.77 7.77 0 01-.409-.612 7.164 7.164 0 01-.347-.649 8.41 8.41 0 01-.282-.68 7.16 7.16 0 01-.294-1.064 7.236 7.236 0 01-.135-1.095 7.531 7.531 0 01.429-2.895 8.379 8.379 0 01.282-.68 7.747 7.747 0 01.982-1.551 7.082 7.082 0 01.495-.545 7.07 7.07 0 01.835-.721 7.77 7.77 0 01.612-.409 7.747 7.747 0 01.986-.496 7.142 7.142 0 011.048-.346 7.175 7.175 0 011.087-.189 7.453 7.453 0 012.557.189 8.448 8.448 0 01.705.213 7.142 7.142 0 01.68.282 7.747 7.747 0 011.551.982 7.082 7.082 0 01.545.495 7.07 7.07 0 01.721.835 7.77 7.77 0 01.409.612 7.747 7.747 0 01.496.986c.047.113.091.228.133.343a7.16 7.16 0 01.294 1.064 7.236 7.236 0 01.135 1.095c.006.123.009.245.009.368zm-25 131a7.531 7.531 0 01-.571 2.87 7.747 7.747 0 01-1.131 1.888 7.082 7.082 0 01-.495.545 7.107 7.107 0 01-.835.721 7.77 7.77 0 01-.612.409 7.747 7.747 0 01-.986.496 7.128 7.128 0 01-.693.248 8.448 8.448 0 01-.714.179 7.236 7.236 0 01-1.095.135 7.531 7.531 0 01-2.895-.429 8.379 8.379 0 01-.68-.282 7.747 7.747 0 01-1.551-.982 7.082 7.082 0 01-.545-.495 7.07 7.07 0 01-.721-.835 7.77 7.77 0 01-.409-.612 7.747 7.747 0 01-.496-.986 8.379 8.379 0 01-.133-.343 7.16 7.16 0 01-.294-1.064 7.236 7.236 0 01-.135-1.095 7.531 7.531 0 01.429-2.895 8.379 8.379 0 01.282-.68 7.747 7.747 0 01.982-1.551 7.082 7.082 0 01.495-.545 7.07 7.07 0 01.835-.721 7.77 7.77 0 01.612-.409 7.747 7.747 0 01.986-.496 7.142 7.142 0 011.048-.346 7.175 7.175 0 011.087-.189 7.453 7.453 0 012.557.189 7.155 7.155 0 011.713.661 6.758 6.758 0 01.632.378 7.77 7.77 0 01.87.679 7.07 7.07 0 01.987 1.089 7.77 7.77 0 01.409.612 7.747 7.747 0 01.496.986c.047.113.091.228.133.343a7.16 7.16 0 01.294 1.064A7.4 7.4 0 01142 359zm205-18.5a7.531 7.531 0 01-.571 2.87 7.189 7.189 0 01-.496.986 7.751 7.751 0 01-.635.902 7.082 7.082 0 01-.495.545 7.974 7.974 0 01-.545.495 8.027 8.027 0 01-.591.438 7.751 7.751 0 01-.96.544 7.189 7.189 0 01-.68.282 7.526 7.526 0 01-2.895.429 7.453 7.453 0 01-2.502-.562 7.189 7.189 0 01-.986-.496 7.751 7.751 0 01-.902-.635 7.082 7.082 0 01-.545-.495 7.07 7.07 0 01-.721-.835 7.77 7.77 0 01-.409-.612 7.747 7.747 0 01-.496-.986 7.142 7.142 0 01-.346-1.048 7.175 7.175 0 01-.189-1.087 7.453 7.453 0 01.189-2.557 7.526 7.526 0 01.495-1.385 8.438 8.438 0 01.347-.649 7.751 7.751 0 01.635-.902 7.082 7.082 0 01.495-.545 7.07 7.07 0 01.835-.721 7.77 7.77 0 01.932-.59 7.189 7.189 0 011.009-.448 7.526 7.526 0 012.895-.429 7.453 7.453 0 012.502.562 7.189 7.189 0 01.986.496 7.751 7.751 0 01.902.635 7.082 7.082 0 01.545.495 7.974 7.974 0 01.495.545 8.027 8.027 0 01.438.591 7.751 7.751 0 01.544.96 7.189 7.189 0 01.282.68A7.526 7.526 0 01347 340.5zM202.5 404a7.531 7.531 0 01-.571 2.87 7.189 7.189 0 01-.496.986 7.751 7.751 0 01-.635.902 7.082 7.082 0 01-.495.545 7.974 7.974 0 01-.545.495 8.027 8.027 0 01-.591.438 7.751 7.751 0 01-.96.544 7.189 7.189 0 01-.68.282 7.526 7.526 0 01-2.895.429 7.453 7.453 0 01-2.502-.562 6.755 6.755 0 01-.665-.315 7.751 7.751 0 01-1.223-.816 7.082 7.082 0 01-.545-.495 7.07 7.07 0 01-.721-.835 7.77 7.77 0 01-.409-.612 7.747 7.747 0 01-.496-.986 8.379 8.379 0 01-.133-.343 7.16 7.16 0 01-.294-1.064 7.236 7.236 0 01-.135-1.095 7.531 7.531 0 01.429-2.895 8.379 8.379 0 01.282-.68 8.438 8.438 0 01.347-.649 7.751 7.751 0 01.635-.902 7.082 7.082 0 01.495-.545 7.07 7.07 0 01.835-.721 7.77 7.77 0 01.612-.409 7.747 7.747 0 01.986-.496 7.142 7.142 0 011.048-.346 7.175 7.175 0 011.087-.189 7.453 7.453 0 012.557.189 7.526 7.526 0 011.385.495 7.747 7.747 0 011.551.982 7.082 7.082 0 01.545.495 7.974 7.974 0 01.495.545 8.027 8.027 0 01.438.591 7.751 7.751 0 01.544.96 7.189 7.189 0 01.282.68A7.526 7.526 0 01202.5 404zm162.577-271.629a7.531 7.531 0 01-.571 2.87 6.755 6.755 0 01-.315.665 7.751 7.751 0 01-.816 1.223 7.082 7.082 0 01-.495.545 7.07 7.07 0 01-.835.721 7.77 7.77 0 01-.612.409 7.747 7.747 0 01-.986.496 8.379 8.379 0 01-.343.133 7.16 7.16 0 01-1.064.294 7.4 7.4 0 01-1.831.135 7.453 7.453 0 01-2.502-.562 7.747 7.747 0 01-1.888-1.131 7.082 7.082 0 01-.545-.495 7.107 7.107 0 01-.721-.835 7.77 7.77 0 01-.409-.612 7.747 7.747 0 01-.496-.986 7.142 7.142 0 01-.346-1.048 7.175 7.175 0 01-.189-1.087 7.453 7.453 0 01.189-2.557 8.448 8.448 0 01.213-.705 7.142 7.142 0 01.282-.68 8.438 8.438 0 01.347-.649 7.751 7.751 0 01.635-.902 7.082 7.082 0 01.495-.545 7.07 7.07 0 01.835-.721 7.77 7.77 0 01.612-.409 7.747 7.747 0 01.986-.496c.113-.047.228-.091.343-.133a7.16 7.16 0 011.064-.294 7.236 7.236 0 011.095-.135 7.531 7.531 0 012.895.429 8.379 8.379 0 01.68.282 8.438 8.438 0 01.649.347 7.751 7.751 0 01.902.635 7.082 7.082 0 01.545.495 7.07 7.07 0 01.721.835 7.77 7.77 0 01.59.932 7.189 7.189 0 01.448 1.009 7.155 7.155 0 01.213.705 7.175 7.175 0 01.189 1.087 7.453 7.453 0 01.036.735zm-39.298-23.797a7.562 7.562 0 01-.225 1.822 7.118 7.118 0 01-.495 1.384 7.75 7.75 0 01-.982 1.552 7.858 7.858 0 01-1.04 1.039 7.062 7.062 0 01-.902.636 7.73 7.73 0 01-.986.496 7.128 7.128 0 01-.693.248 8.404 8.404 0 01-.354.098 7.4 7.4 0 01-1.823.225 7.531 7.531 0 01-2.87-.571 7.747 7.747 0 01-1.888-1.132 8.004 8.004 0 01-.545-.494 8.006 8.006 0 01-.494-.545 7.093 7.093 0 01-.439-.592 7.1 7.1 0 01-.378-.631 7.785 7.785 0 01-.315-.665 7.163 7.163 0 01-.248-.693 8.89 8.89 0 01-.179-.714 7.44 7.44 0 01-.108-2.198 7.46 7.46 0 011.031-3.121 7.751 7.751 0 01.636-.902 8.006 8.006 0 01.76-.8 8.004 8.004 0 01.569-.466 6.813 6.813 0 01.612-.409 7.18 7.18 0 01.986-.496 6.79 6.79 0 01.693-.248 7.169 7.169 0 011.442-.287 7.453 7.453 0 012.198.108 7.131 7.131 0 01.714.179 7.526 7.526 0 011.359.562 7.75 7.75 0 011.222.817 8.004 8.004 0 01.545.494 7.097 7.097 0 01.495.546 7.039 7.039 0 01.438.591 7.751 7.751 0 01.544.96 7.154 7.154 0 01.282.68 7.118 7.118 0 01.213.704 7.435 7.435 0 01.225 1.823z"
        fill="#334365" />
      <path
        d="M372.691 405.299a8.773 8.773 0 00-.141 2.471c.523 3.344 1.447 6.436 2.232 9.524.323 2.837.981 6.065 4.613 5.506h9.673c3.719-.287 7.804.354 8.482 4.166 1.401 2.823 1.939 6.174 3.125 9.078.63 2.417 1.855 5.394 4.464 6.101 1.774.887 3.877.814 5.97.742 1.001-.034 2-.069 2.959.002 2.919-.302 5.904-.369 8.78-.744 3.2-.468 5.067-2.366 6.25-5.208 1.827-2.033 5.012-2.809 5.654-5.804.263-3.322-.568-5.984-1.934-8.78-1.129-2.958-2.471-5.449-2.976-8.482-.746-2.54.307-5.401 2.678-6.25 2.061-1.676 4.155-4.325 6.25-6.399 1.526-.954 1.481-2.931 1.437-4.871-.018-.787-.036-1.568.051-2.271-.009-3.175-2.712-5.174-3.72-7.887-1.235-2.412-2.257-5.928-5.357-6.101-2.973-.818-6.248-1.717-9.226-2.084-.47-.101-.962-.227-1.467-.356-2.598-.665-5.539-1.418-7.611.654-2.721 1.283-4.098 4.099-5.506 6.547-1.319 2.139-2.501 4.834-4.315 6.25-3.293.698-7.222.705-10.417-.297-1.281-.094-2.415-.53-3.55-.967-1.441-.555-2.884-1.111-4.634-.968a9.985 9.985 0 00-1.094.24c-2.281.631-4.567 2.086-5.603 4.076-1.447 2.065-2.009 4.654-2.925 7.018-.466.824-.953 1.705-1.36 2.648-.441.748-.747 1.491-.782 2.446z"
        fill="#EAEAEA" />
      <path
        d="M390.12 381.714c-2.529 1.149-5.02 5.19-2.678 7.292 2.021 1.371 4.719 1.365 7.386 1.359 1.239-.003 2.471-.006 3.626.129 4.121.251 7.547-1.85 10.416-4.613 2.331-2.117 3.533-5.339 2.828-8.482-.874-1.544-2.804-1.692-4.774-1.844-1.14-.088-2.293-.177-3.262-.537-.748.051-1.524.023-2.295-.005-1.761-.063-3.501-.125-4.848.749a6.545 6.545 0 00-.142.004c-1.433 2.859-3.517 4.473-6.257 5.948zm40.903 28.423c-1.437 2.368-2.443 5.51-1.339 8.184 1.105 2.756 2.767 6.004 4.464 8.036 3.032 1.022 5.846-.407 7.738-2.381 2.441-1.83 4.564-4.656 4.166-8.036.164-3.147-1.316-5.998-2.827-8.184-1.154-1.905-1.911-4.001-3.493-5.158-1.484-.225-3.121.222-4.394 1.289-1.953 1.208-3.062 4.315-4.315 6.25zm-51.375 13.176c-.672.636-1.002 1.553-.731 2.847.477 2.852 2.62 5.149 2.678 8.184 1.474 1.505 1.447 4.206 3.72 4.911 3.167.967 7.172 1.212 10.715 1.339 2.34.165 6.276.249 4.91-3.125-.201-3.595-.953-7.839-2.976-10.416-1.526-2.938-4.529-2.595-7.44-3.125-1.663-.716-3.49-.657-5.318-.598-.862.028-1.724.056-2.569.003-.6.03-1.211.014-1.822-.002-.39-.01-.78-.02-1.167-.018z"
        fill="#FF8000" />
      <path
        d="M396.824 375.99a12.312 12.312 0 01-2.75 3.64c-.947.859-2.186 1.7-3.717 2.525l-.015.008-.015.007c-.576.261-1.129.668-1.662 1.22a6.518 6.518 0 00-1.256 1.82c-.668 1.464-.545 2.605.367 3.424l-.334.372.28-.414c.833.565 1.912.936 3.237 1.114.818.11 2.107.163 3.868.159 1.667-.004 2.895.04 3.685.132l-.058.497.03-.499c3.382.206 6.728-1.286 10.039-4.474l.006-.005.005-.005a8.68 8.68 0 002.416-3.649c.499-1.45.586-2.901.26-4.354l.488-.109-.435.246c-.323-.569-.884-.973-1.683-1.211-.525-.156-1.423-.283-2.695-.381-1.575-.121-2.707-.31-3.397-.566l.174-.469.034.499c-.516.035-1.299.033-2.347-.004-1.147-.041-1.984-.034-2.51.02-.834.087-1.516.303-2.048.648l-.121.079-.144.002c-.042 0-.085.002-.127.004l-.022-.5.447.224zm-.894-.448l.131-.262.293-.013c.053-.003.106-.004.158-.005l.007.5-.272-.419c.666-.433 1.495-.701 2.489-.804.572-.06 1.455-.068 2.649-.025 1.014.036 1.762.038 2.243.005l.108-.007.1.037c.603.224 1.645.393 3.126.507 1.342.104 2.31.243 2.902.42 1.058.314 1.814.873 2.269 1.677l.036.064.017.072c.367 1.637.27 3.27-.291 4.899a9.656 9.656 0 01-2.688 4.063l-.337-.37.347.36c-3.522 3.392-7.12 4.976-10.794 4.752l-.014-.001-.013-.001c-.75-.088-1.939-.13-3.567-.126-1.806.004-3.14-.052-4.003-.168-1.481-.198-2.702-.624-3.665-1.277l-.028-.019-.025-.023a3.199 3.199 0 01-1.09-2.196c-.061-.754.099-1.55.481-2.387a7.506 7.506 0 011.447-2.099c.62-.644 1.276-1.123 1.968-1.437l.206.455-.237-.44c1.459-.785 2.632-1.581 3.519-2.385a11.32 11.32 0 002.528-3.347zm-15.128 48.289a43.31 43.31 0 00-1.151-.018l-.003-.5.344.364c-.604.57-.799 1.364-.586 2.38l.002.01.002.01c.133.796.548 1.943 1.245 3.44.461.99.781 1.746.959 2.27.305.894.466 1.743.481 2.548l-.5.009.357-.35c.424.433.878 1.186 1.362 2.258.343.758.627 1.288.854 1.59.349.464.781.776 1.295.936 2.316.707 5.844 1.146 10.585 1.317h.008l.009.001c1.681.118 2.897.048 3.647-.21.471-.162.775-.392.912-.691.169-.366.12-.879-.147-1.538l-.031-.077-.005-.083c-.261-4.651-1.218-8.03-2.87-10.136l-.029-.036-.021-.042a4.1 4.1 0 00-2.169-1.977c-.61-.245-1.647-.455-3.11-.631-.8-.096-1.402-.181-1.808-.255l-.056-.011-.052-.022c-.688-.296-1.5-.479-2.437-.55-.577-.043-1.467-.046-2.667-.007-1.165.037-2.037.038-2.617.002l.032-.499.025.499c-.413.021-1.033.02-1.86-.001zm.025-1c.802.021 1.397.022 1.785.002l.028-.001.028.001c.548.035 1.388.034 2.521-.003 1.237-.039 2.162-.036 2.775.01 1.048.079 1.967.288 2.757.628l-.197.46.089-.492c.386.07.969.152 1.748.246 1.55.187 2.671.419 3.363.696 1.191.477 2.085 1.292 2.684 2.444l-.444.231.394-.309c1.782 2.271 2.809 5.837 3.082 10.697l-.5.028.464-.187c.375.926.418 1.703.129 2.331-.257.558-.755.964-1.495 1.218-.879.302-2.227.39-4.043.262l.035-.499-.018.5c-4.828-.174-8.443-.628-10.845-1.361-.72-.224-1.32-.654-1.798-1.29-.272-.361-.593-.954-.966-1.78-.435-.964-.824-1.62-1.165-1.969l-.139-.141-.004-.199c-.013-.701-.156-1.449-.427-2.244-.167-.49-.474-1.214-.919-2.171-.736-1.579-1.177-2.811-1.325-3.697l.493-.082-.49.102c-.289-1.381.003-2.486.878-3.312l.144-.136.197-.001c.263-.001.657.005 1.181.018zm54.774-18.519c-.552.341-1.102.913-1.649 1.715-.339.496-.805 1.303-1.4 2.421-.487.918-.857 1.571-1.11 1.961l-.419-.272.427.259c-.779 1.284-1.299 2.557-1.56 3.82-.303 1.462-.218 2.767.256 3.915 1.366 3.405 2.828 6.04 4.386 7.906l-.384.32.159-.474c1.307.441 2.63.42 3.967-.063 1.174-.424 2.258-1.154 3.251-2.19l.028-.029.033-.025c1.309-.982 2.314-2.078 3.015-3.287.809-1.397 1.127-2.827.955-4.29l-.005-.042.002-.042c.126-2.426-.787-5.05-2.739-7.875l-.009-.012-.008-.013a38.157 38.157 0 01-.895-1.604c-.484-.907-.86-1.558-1.128-1.954-.426-.63-.872-1.115-1.337-1.455l.295-.404-.075.494a4.792 4.792 0 00-2.063.146 5.255 5.255 0 00-1.935 1.032l-.027.023-.031.019zm-.526-.85l.263.425-.321-.383a6.229 6.229 0 012.301-1.227 5.78 5.78 0 012.489-.173l.121.018.099.073c.559.408 1.084.976 1.576 1.702.286.424.68 1.105 1.181 2.042.374.699.663 1.219.869 1.558l-.428.259.412-.284c2.081 3.011 3.052 5.842 2.915 8.494l-.5-.026.497-.058c.198 1.684-.163 3.32-1.083 4.908-.768 1.327-1.862 2.523-3.28 3.586l-.3-.4.361.346c-1.101 1.149-2.312 1.961-3.633 2.438-1.557.562-3.099.586-4.626.071l-.134-.045-.09-.108c-1.625-1.947-3.14-4.669-4.543-8.166-.551-1.336-.655-2.836-.31-4.499.284-1.375.846-2.754 1.684-4.135l.004-.007.004-.006c.237-.365.592-.994 1.066-1.886.612-1.151 1.098-1.99 1.457-2.516.627-.919 1.277-1.586 1.949-2.001z"
        fill="#D8D8D8" />
      <path fill-rule="evenodd" clip-rule="evenodd"
        d="M390.475 374.159a11.243 11.243 0 0110.557-3.842l.008.001 13.595 2.335a3.744 3.744 0 012.357.405l13.846 2.378c1.577.278 3.073.889 4.389 1.788a3.756 3.756 0 011.408 1.137 11.255 11.255 0 012.817 4.295l5.107 14.032.047.128 5.109 14.038a11.255 11.255 0 01-1.957 11.069l-.011.012-9.069 10.71a3.752 3.752 0 01-1.545 1.826l-8.912 10.525-.005.006a11.256 11.256 0 01-3.139 2.591c-.4.451-.915.812-1.521 1.032a3.735 3.735 0 01-1.829.187 11.224 11.224 0 01-4.07.033l-.008-.001-13.592-2.335a3.744 3.744 0 01-2.357-.404l-13.832-2.376-.016-.003a11.252 11.252 0 01-8.614-7.22l-5.109-14.038a2.23 2.23 0 01-.047-.129l-5.107-14.031a11.256 11.256 0 01-.604-5.101 3.826 3.826 0 01.348-1.776 11.229 11.229 0 012.213-4.191l.011-.013 9.067-10.709a3.749 3.749 0 011.545-1.825l8.92-10.534zm-5.287 17.85l-7.006 8.275 29.694 5.261 19.365-23.117-10.687-1.835-10.993 13.109a3.75 3.75 0 01-3.525 1.283l-16.848-2.976zm22.811-12.886l-8.261-1.419a3.757 3.757 0 00-3.524 1.283l-.011.013-5.405 6.384 10.409 1.839 6.792-8.1zm25.096 7.996l-19.474 23.247 10.25 28.161 6.977-8.241-5.835-16.032a3.75 3.75 0 01.65-3.692l11.132-13.275-3.7-10.168zm6.663 18.307l-6.957 8.297 3.629 9.971 5.582-6.592.005-.006a3.748 3.748 0 00.648-3.684l-2.907-7.986zm-22.935 35.666l-10.25-28.161-29.86-5.291 3.701 10.168 17.06 3.014a3.751 3.751 0 012.872 2.41l5.835 16.032 10.642 1.828zm-19.155-3.29l-3.629-9.971-10.663-1.884 2.908 7.988a3.747 3.747 0 002.864 2.404l.006.001 8.514 1.462z"
        fill="#334365" />
      <path
        d="M379.549 101.455c-.165 1.177-.061 2.416.186 3.552.837 2.03 2.251 3.449 3.384 5.158.182.352.395.701.611 1.055.703 1.155 1.436 2.359 1.242 3.86-.193 1.908-1.202 3.72-1.289 5.641-.051 1.55-.046 3.102.564 4.431.858 1.142 1.79 2.664 3.062 3.465 1.25.946 3.426 1.596 4.271 2.74 1.547.718 3.121 1.497 4.915 1.692 1.861.256 3.145-.403 4.593-1.289 1.964-.431 3.25-1.957 3.304-3.948.811-2.193 1.755-4.522 3.223-6.124 1.2-1.537 3.812-2.875 6.205-2.901 1.79.086 3.54-.047 5.157-.564 1.335-.878 2.838-2.26 3.465-3.868.675-2.08 1.202-4.292 1.289-6.527.165-1.651-.322-2.945-.967-4.271-.685-1.735-1.927-3.225-3.465-4.27-.74-1.397-1.719-2.632-3.465-2.902-1.146.086-2.283.283-3.426.481-2.113.367-4.245.736-6.485.406l-.376.007c-1.941.043-4.047.088-4.942-1.78-1.159-1.55-1.586-3.396-2.901-4.915-.502-.795-1.263-1.292-2.144-1.546-.78-.225-1.654-.26-2.53-.147-2.245.373-4.608.772-6.768 1.45-1.413.712-3.053.805-4.029 2.096-.249.5-.462 1.01-.664 1.526l-.062.086a8.866 8.866 0 00-.7 1.866c-.132.32-.273.638-.428.954-.598 1.42-.877 2.975-.83 4.586z"
        fill="#EAEAEA" />
      <path
        d="M379.511 105.03c-.328-.83-.474-1.863-.437-3.099l.499.014-.498.035c-.132-1.89.149-3.659.843-5.305l.006-.013.006-.013c.231-.472.532-1.193.902-2.164.387-1.017.705-1.774.953-2.271l.021-.042.028-.037a3.928 3.928 0 011.342-1.105c.318-.167.815-.366 1.491-.596.624-.214 1.081-.393 1.37-.539l.036-.018.039-.012c1.495-.47 3.774-.96 6.837-1.467l.008-.001.009-.001c1.069-.14 2.036-.068 2.901.213.991.324 1.745.893 2.26 1.708l-.423.267.378-.328c.505.584 1.069 1.51 1.69 2.778.489.998.9 1.72 1.233 2.165l.03.04.021.044c.328.685.911 1.131 1.748 1.337.544.134 1.455.187 2.733.16l.377-.008h.041l.041.005c.956.141 2.014.16 3.172.055.705-.063 1.756-.216 3.155-.459 1.536-.266 2.694-.428 3.474-.486l.057-.005.057.01c1.564.24 2.841 1.294 3.83 3.16l-.442.234.282-.413c1.706 1.161 2.922 2.661 3.648 4.5l-.465.184.45-.218c.39.803.664 1.505.821 2.105.21.806.275 1.617.194 2.433l-.498-.049.5.019c-.077 1.984-.515 4.205-1.313 6.662l-.005.014-.005.013c-.595 1.526-1.814 2.894-3.656 4.104l-.057.038-.066.021c-1.53.489-3.308.685-5.333.587l.024-.499.005.5c-1.093.011-2.206.29-3.338.834-1.083.521-1.909 1.145-2.478 1.874l-.012.016-.013.014c-.629.686-1.221 1.594-1.779 2.724-.395.801-.843 1.88-1.344 3.236l-.469-.173.5.013c-.03 1.111-.381 2.066-1.053 2.867-.668.798-1.549 1.316-2.644 1.556l-.107-.488.261.427c-.896.548-1.644.921-2.245 1.12a5.851 5.851 0 01-2.677.238l.068-.496-.054.497c-.785-.085-1.622-.291-2.509-.618-.521-.192-1.275-.517-2.26-.976l-.303-.141-.115-.054-.076-.103c-.294-.398-1.067-.918-2.319-1.56-.882-.452-1.499-.811-1.851-1.078l.301-.399-.266.424c-.5-.315-1.003-.766-1.512-1.355-.291-.338-.69-.859-1.197-1.565a37.39 37.39 0 00-.487-.668l-.032-.043-.022-.049c-.299-.651-.49-1.416-.574-2.295-.056-.594-.068-1.381-.036-2.362.033-.726.26-1.768.68-3.126.351-1.135.555-1.984.612-2.548l.001-.007v-.007c.075-.582-.009-1.186-.254-1.814-.154-.395-.461-.969-.919-1.722-.292-.479-.501-.84-.628-1.085l.444-.23-.417.276a32.285 32.285 0 00-1.146-1.579c-1.129-1.489-1.89-2.711-2.284-3.664l-.017-.041-.009-.044c-.456-2.103-.367-3.922.268-5.454l.462.191-.484-.125c.107-.411.24-1.044.4-1.9a30.97 30.97 0 01.428-2.024 9.49 9.49 0 01.745-1.985l.015-.03.019-.026c.93-1.314 2.061-2.34 3.394-3.079 1.332-.738 2.799-1.152 4.4-1.241l.028.499-.071-.495c.444-.064 1.132-.216 2.063-.459 1.203-.313 2.114-.498 2.733-.554 1.072-.097 2.034.038 2.886.404l-.395.919c-.697-.3-1.497-.409-2.401-.327-.564.051-1.421.227-2.571.526-.968.252-1.692.412-2.174.48l-.021.004-.021.001c-2.967.166-5.312 1.465-7.033 3.9l-.409-.29.443.233c-.394.75-.752 1.993-1.075 3.726-.164.88-.302 1.536-.415 1.97l-.008.033-.014.032c-.555 1.34-.627 2.96-.215 4.859l-.488.106.462-.19c.36.873 1.079 2.02 2.156 3.44.537.709.931 1.252 1.183 1.631l.015.023.012.024c.116.224.314.566.594 1.025.489.803.821 1.429.996 1.878.307.787.412 1.555.315 2.306l-.496-.064.498.05c-.064.631-.281 1.545-.652 2.744-.395 1.276-.606 2.231-.635 2.863-.064 1.912.109 3.314.519 4.207l-.455.208.4-.3c.11.146.276.375.5.686.985 1.372 1.795 2.257 2.429 2.656l.018.012.017.013c.306.231.874.56 1.704.985.672.345 1.161.614 1.464.807.538.342.939.692 1.203 1.049l-.402.297.21-.453.305.141c.96.448 1.687.763 2.182.945.811.298 1.568.486 2.272.562l.007.001.007.001a4.865 4.865 0 002.226-.196c.529-.175 1.208-.516 2.038-1.024l.072-.044.082-.018c.872-.192 1.57-.599 2.092-1.222s.795-1.374.819-2.252l.003-.082.028-.078c.514-1.388.975-2.499 1.385-3.331.6-1.215 1.246-2.201 1.939-2.957l.368.338-.394-.308c.665-.852 1.609-1.572 2.832-2.16 1.267-.609 2.52-.92 3.762-.933H413.844c1.905.092 3.565-.088 4.981-.541l.152.477-.274-.418c1.665-1.094 2.756-2.305 3.273-3.632l.466.182-.475-.155c.769-2.369 1.191-4.5 1.265-6.392v-.015l.002-.015a5.864 5.864 0 00-.167-2.081c-.14-.537-.391-1.177-.752-1.922l-.009-.017-.007-.017c-.65-1.649-1.744-2.996-3.281-4.041l-.102-.07-.058-.11c-.401-.755-.819-1.335-1.255-1.74a3.418 3.418 0 00-1.845-.9l.076-.495.038.499c-.748.056-1.874.214-3.378.475-1.426.247-2.504.403-3.236.47-1.237.11-2.373.09-3.408-.063l.073-.494.009.5-.374.007c-1.365.03-2.363-.033-2.993-.188-1.143-.281-1.946-.906-2.411-1.876l.451-.216-.401.3c-.37-.497-.814-1.271-1.33-2.325-.583-1.19-1.099-2.045-1.548-2.563l-.025-.029-.02-.031c-.386-.612-.961-1.042-1.724-1.29-.721-.236-1.542-.294-2.462-.174l-.065-.496.082.494c-3.017.5-5.25.978-6.7 1.434l-.15-.477.224.446c-.329.166-.828.364-1.496.592-.627.214-1.078.393-1.351.536a2.952 2.952 0 00-1.008.823l-.398-.302.447.223c-.233.468-.538 1.195-.914 2.181-.381 1-.693 1.748-.938 2.248l-.449-.22.461.194c-.632 1.5-.888 3.116-.768 4.848l.002.024-.001.025c-.032 1.099.091 2 .368 2.702l-.93.368zm17.323-15.736a.458.458 0 01-.01.098.444.444 0 01-.074.18.5.5 0 11.084-.278zm-16.358 15.552a.533.533 0 01-.038.192.474.474 0 01-.108.162.502.502 0 01-.854-.354.523.523 0 01.085-.277.457.457 0 01.138-.138.479.479 0 01.375-.075.479.479 0 01.256.137.457.457 0 01.108.162.511.511 0 01.038.191z"
        fill="#D8D8D8" />
      <path
        d="M375.346 111.85c-.691 2.545.902 5.201 2.603 6.815.233.133.5.299.79.478 1.924 1.195 4.841 3.005 5.183-.095 1.021-2.282 2.1-4.755 2.067-7.351-.721-1.353-2.459-1.932-3.446-3.063-1.291-1.154-2.533-2.464-4.364-2.603a1.045 1.045 0 00-.378.084c-.375.164-.584.542-.761.958a7.136 7.136 0 00-.487 1.076c-.457 1.242-.719 2.664-1.207 3.701zm30.431 10.689c-1.199 2.376-1.764 5.557-.995 8.193.835 2.023 4.593 1.328 6.355.536 2.161-.885 4.411-2.292 5.819-4.211 1.078-2.057 1.515-4.441 1.455-6.815.363-2.134-2.399-1.575-3.742-1.304l-.01.002a6.996 6.996 0 00-.684.1c-3.267-.301-7.086.349-8.198 3.499zm-7.827-33.723c-.188 1.765.592 3.343 1.761 4.594a7.43 7.43 0 006.279 3.752c.365.003.761.018 1.173.034 2.731.108 6.184.243 6.101-3.097.498-2.759-.692-5.725-3.599-6.432-2.28-.832-4.814-1.578-7.351-1.225-.276.083-.597.142-.929.204-.967.18-2.028.377-2.347 1.203-.412.251-.78.568-1.088.967z"
        fill="#FF8000" />
      <path
        d="M399.299 88.275a3.477 3.477 0 00-.953.846l-.396-.305.497.053c-.157 1.47.386 2.87 1.629 4.2l.04.042.03.051a6.805 6.805 0 002.462 2.518 6.836 6.836 0 003.394.982c.243.002.636.013 1.181.035 1.883.074 3.196-.004 3.938-.234 1.125-.35 1.673-1.133 1.643-2.352l-.001-.05.009-.05c.243-1.347.085-2.57-.476-3.67-.589-1.156-1.505-1.886-2.749-2.188l-.027-.007-.026-.01c-1.359-.495-2.528-.84-3.506-1.035-1.309-.262-2.511-.316-3.605-.164l-.069-.495.144.48c-.201.06-.529.131-.982.216-.626.116-1.066.226-1.318.33-.346.142-.564.329-.653.56l-.061.159-.145.088zm-.522-.853l.261.427-.466-.18c.192-.5.595-.875 1.206-1.127.316-.13.821-.259 1.515-.388.419-.077.711-.141.878-.191l.037-.01.038-.006c1.205-.168 2.518-.11 3.937.173 1.029.205 2.246.564 3.653 1.077l-.171.47.118-.486c1.541.375 2.676 1.277 3.404 2.706.663 1.3.852 2.734.569 4.3l-.492-.088.5-.012c.042 1.722-.74 2.833-2.347 3.33-.851.265-2.275.357-4.273.279-.534-.021-.923-.032-1.167-.034a7.824 7.824 0 01-3.883-1.124 7.791 7.791 0 01-2.817-2.88l.434-.248-.365.341c-1.451-1.552-2.082-3.215-1.893-4.988l.015-.141.086-.112c.332-.43.74-.793 1.223-1.088zm-21.755 20.899c-.124.338-.289.869-.494 1.592-.287 1.009-.53 1.726-.73 2.15l-.452-.213.482.131c-.288 1.061-.161 2.202.38 3.423.468 1.057 1.163 2.023 2.085 2.898l-.344.363.249-.434c.16.091.428.254.804.488 1.399.868 2.407 1.367 3.025 1.498.41.087.718.058.923-.087.253-.178.411-.557.475-1.137l.008-.078.032-.072c.672-1.5 1.142-2.669 1.41-3.506.423-1.322.628-2.534.614-3.634l.5-.006-.441.235c-.241-.451-.833-1.002-1.777-1.654-.765-.528-1.3-.967-1.604-1.315l.376-.329-.333.373-.408-.369c-.75-.684-1.328-1.155-1.731-1.415-.643-.413-1.286-.645-1.93-.694l.038-.498.023.499a.583.583 0 00-.201.043c-.168.074-.335.306-.501.696l-.011.027-.015.025a6.65 6.65 0 00-.452 1zm-.939-.345c.163-.442.337-.826.523-1.151l.434.248-.46-.196c.269-.633.609-1.04 1.02-1.22.171-.075.357-.117.556-.126l.03-.001.031.002c.812.062 1.611.345 2.395.85.45.29 1.072.795 1.863 1.516.179.163.313.284.402.363l.023.021.02.023c.249.286.722.669 1.419 1.15.521.359.901.644 1.139.852.421.368.738.752.952 1.155l.058.107.001.121c.015 1.209-.205 2.526-.662 3.953-.279.871-.762 2.074-1.449 3.609l-.456-.204.497.054c-.097.879-.395 1.495-.893 1.845-.443.313-1.012.395-1.706.248-.732-.154-1.847-.697-3.345-1.627a27.403 27.403 0 00-.774-.469l-.052-.03-.044-.042c-1.019-.966-1.789-2.039-2.312-3.218-.636-1.437-.78-2.801-.43-4.09l.012-.042.019-.04c.176-.375.4-1.04.672-1.997.212-.748.385-1.302.517-1.664zm37.847 11.562c-1.818-.167-3.384-.024-4.699.43-1.531.529-2.525 1.441-2.983 2.737l-.01.031-.015.028a12.138 12.138 0 00-1.186 3.842c-.2 1.457-.125 2.786.225 3.986l-.48.14.462-.191c.287.697 1.074 1.035 2.36 1.015a8.346 8.346 0 003.328-.744l.007-.004.008-.003c2.515-1.03 4.383-2.378 5.606-4.044l.403.296-.443-.232c.995-1.9 1.461-4.09 1.398-6.57l-.001-.049.008-.048c.057-.336.019-.574-.114-.716-.126-.134-.353-.22-.681-.257-.49-.056-1.275.025-2.355.243l-.035.007-.026.003c-.208.02-.42.051-.636.093l-.07.013-.071-.006zm.091-.996l-.046.498-.095-.491c.248-.048.492-.084.731-.107l.048.498-.099-.49.01-.002c1.183-.239 2.072-.325 2.667-.257.57.066 1.002.254 1.296.566.36.383.484.906.371 1.569l-.493-.084.5-.013c.067 2.654-.437 5.007-1.512 7.06l-.017.033-.023.03c-1.334 1.818-3.344 3.278-6.033 4.379l-.189-.463.205.456a9.355 9.355 0 01-3.722.832c-1.74.027-2.84-.517-3.301-1.633l-.01-.025-.008-.026c-.389-1.336-.474-2.804-.255-4.402.202-1.475.631-2.86 1.285-4.156l.446.225-.472-.166c.565-1.6 1.765-2.717 3.599-3.35 1.451-.501 3.157-.661 5.117-.481z"
        fill="#D8D8D8" />
      <path fill-rule="evenodd" clip-rule="evenodd"
        d="M404.994 84.275a7.497 7.497 0 017.038 2.562l.003.004 5.942 7.018c.459.278.826.7 1.031 1.217l6.052 7.148a7.502 7.502 0 011.475 2.794 2.508 2.508 0 01.232 1.184 7.502 7.502 0 01-.402 3.401l-3.405 9.354-.031.086-3.406 9.358a7.515 7.515 0 01-2.227 3.176 7.517 7.517 0 01-3.516 1.638l-.011.002-9.221 1.583a2.49 2.49 0 01-1.571.27l-9.062 1.557h-.005a7.479 7.479 0 01-2.714-.022 2.497 2.497 0 01-2.233-.812 7.525 7.525 0 01-2.092-1.728l-.004-.004-5.941-7.017a2.493 2.493 0 01-1.03-1.216l-6.046-7.14-.007-.009a7.507 7.507 0 01-1.305-7.379l3.406-9.358.031-.086 3.405-9.355a7.506 7.506 0 011.878-2.863 2.501 2.501 0 01.938-.758 7.505 7.505 0 012.927-1.192l.011-.002 9.219-1.583a2.497 2.497 0 011.571-.27l9.07-1.558zm-10.349 6.85l-7.124 1.224 12.91 15.412 19.796-3.508-4.671-5.516-11.232 1.984a2.503 2.503 0 01-2.351-.856l-7.328-8.74zm17.171 3.195l-3.611-4.265a2.5 2.5 0 00-2.349-.855l-.011.002-5.496.944 4.528 5.4 6.939-1.226zm9.39 14.838l-19.907 3.527-6.833 18.774 7.094-1.219 3.891-10.688a2.5 2.5 0 011.914-1.607l11.374-2.009 2.467-6.778zm-4.442 12.204l-7.108 1.256-2.42 6.648 5.676-.975.004-.001a2.505 2.505 0 001.91-1.604l1.938-5.324zm-26.997 8.387l6.833-18.774-12.982-15.498-2.467 6.778 7.421 8.85c.574.685.739 1.623.434 2.462l-3.89 10.688 4.651 5.494zm-8.373-9.889l2.42-6.648-4.638-5.531-1.938 5.326a2.499 2.499 0 00.432 2.455l.003.003 3.721 4.395z"
        fill="#334365" />
    </g>
  </g>
  <defs>
    <clipPath id="prefix__clip0_0_1">
      <path fill="#fff" d="M0 0h512v512H0z" />
    </clipPath>
  </defs>
</svg>